<svg xmlns="http://www.w3.org/2000/svg"  viewBox="0 0 48 48" width="512px" height="512px"><linearGradient id="Nv6YqSTRwRczWJ~WyPw1Ea" x1="-7.018" x2="39.387" y1="9.308" y2="33.533" gradientUnits="userSpaceOnUse"><stop offset="0" stop-color="#008252"/><stop offset=".909" stop-color="#0f6e6a"/></linearGradient><path fill="url(#Nv6YqSTRwRczWJ~WyPw1Ea)" d="M44.5,41h-41C2.119,41,1,39.881,1,38.5v-31C1,6.119,2.119,5,3.5,5h11.597 c1.519,0,2.955,0.69,3.904,1.877L21.5,10h23c1.381,0,2.5,1.119,2.5,2.5v26C47,39.881,45.881,41,44.5,41z"/><linearGradient id="Nv6YqSTRwRczWJ~WyPw1Eb" x1="16.865" x2="44.965" y1="39.287" y2="39.792" gradientUnits="userSpaceOnUse"><stop offset="0" stop-color="#0a635f"/><stop offset=".464" stop-color="#0c575d"/></linearGradient><path fill="url(#Nv6YqSTRwRczWJ~WyPw1Eb)" d="M1,37.875V38.5C1,39.881,2.119,41,3.5,41h41c1.381,0,2.5-1.119,2.5-2.5v-0.625H1z"/><linearGradient id="Nv6YqSTRwRczWJ~WyPw1Ec" x1="-4.879" x2="35.968" y1="12.764" y2="30.778" gradientUnits="userSpaceOnUse"><stop offset=".34" stop-color="#5cd4ae"/><stop offset=".495" stop-color="#57d1ac"/><stop offset=".674" stop-color="#49caa7"/><stop offset=".862" stop-color="#33be9e"/><stop offset="1" stop-color="#1db295"/></linearGradient><path fill="url(#Nv6YqSTRwRczWJ~WyPw1Ec)" d="M44.5,11h-23l-1.237,0.824C19.114,12.591,17.763,13,16.381,13H3.5C2.119,13,1,14.119,1,15.5 v22C1,38.881,2.119,40,3.5,40h41c1.381,0,2.5-1.119,2.5-2.5v-24C47,12.119,45.881,11,44.5,11z"/><radialGradient id="Nv6YqSTRwRczWJ~WyPw1Ed" cx="37.836" cy="49.317" r="53.875" gradientUnits="userSpaceOnUse"><stop offset=".199" stop-color="#0a97a8"/><stop offset=".601" stop-color="#16ad9a"/><stop offset=".774" stop-color="#23b791"/><stop offset="1" stop-color="#2fc089"/></radialGradient><path fill="url(#Nv6YqSTRwRczWJ~WyPw1Ed)" d="M44.5,40h-41C2.119,40,1,38.881,1,37.5v-21C1,15.119,2.119,14,3.5,14h13.256 c1.382,0,2.733-0.409,3.883-1.176L21.875,12H44.5c1.381,0,2.5,1.119,2.5,2.5v23C47,38.881,45.881,40,44.5,40z"/><g><path d="M31,38H17c-1.103,0-2-0.897-2-2s0.897-2,2-2h5.172l-5.586-5.586c-0.78-0.78-0.78-2.048,0-2.828 c0.779-0.78,2.049-0.78,2.828,0L22,28.172V16c0-1.103,0.897-2,2-2s2,0.897,2,2v12.172l2.586-2.586c0.779-0.78,2.049-0.78,2.828,0 c0.78,0.78,0.78,2.048,0,2.828L25.828,34H31c1.103,0,2,0.897,2,2S32.103,38,31,38z" opacity=".05"/><path d="M31,37.5H17c-0.827,0-1.5-0.673-1.5-1.5s0.673-1.5,1.5-1.5h7c-0.4,0-0.777-0.156-1.061-0.439l-6-6 c-0.585-0.585-0.585-1.536,0-2.121s1.536-0.585,2.121,0l3.439,3.439V16c0-0.827,0.673-1.5,1.5-1.5s1.5,0.673,1.5,1.5v13.379 l3.439-3.439c0.585-0.585,1.536-0.585,2.121,0s0.585,1.536,0,2.121l-6,6C24.777,34.344,24.4,34.5,24,34.5h7 c0.827,0,1.5,0.673,1.5,1.5S31.827,37.5,31,37.5z" opacity=".07"/><path fill="#fff" d="M30.707,27.707l-6,6C24.512,33.902,24.256,34,24,34s-0.512-0.098-0.707-0.293l-6-6 c-0.391-0.391-0.391-1.023,0-1.414s1.023-0.391,1.414,0L23,30.586V16c0-0.552,0.448-1,1-1s1,0.448,1,1v14.586l4.293-4.293 c0.391-0.391,1.023-0.391,1.414,0S31.098,27.316,30.707,27.707z M32,36c0-0.552-0.448-1-1-1H17c-0.552,0-1,0.448-1,1s0.448,1,1,1 h14C31.552,37,32,36.552,32,36z"/></g></svg>