<svg xmlns="http://www.w3.org/2000/svg"  viewBox="0 0 64 64" width="512px" height="512px" baseProfile="basic"><path fill="orange" d="M22.597,9H13c-3.314,0-6,2.686-6,6v7l22-8l-2.499-3.123C25.552,9.69,24.116,9,22.597,9z"/><path fill="#ffce29" d="M51,14H13c-3.314,0-6,2.686-6,6v26c0,3.314,2.686,6,6,6h38c3.314,0,6-2.686,6-6V20 C57,16.686,54.314,14,51,14z"/><ellipse cx="32" cy="61" opacity=".3" rx="19" ry="3"/><path fill="#fff" d="M18,14c2.761,0,5-2.238,5-5H13c-3.314,0-6,2.686-6,6v14c2.761,0,5-2.238,5-5v-9 c0-0.552,0.449-1,1-1H18z" opacity=".3"/><path d="M57,46V34c-2.761,0-5,2.238-5,5v7c0,0.552-0.449,1-1,1H40c-2.761,0-5,2.238-5,5h16 C54.314,52,57,49.314,57,46z" opacity=".15"/><path fill="#fff" d="M11,20c-0.829,0-1.5-0.672-1.5-1.5V15c0-1.93,1.57-3.5,3.5-3.5h4.5c0.829,0,1.5,0.672,1.5,1.5 s-0.671,1.5-1.5,1.5H13c-0.276,0-0.5,0.225-0.5,0.5v3.5C12.5,19.328,11.829,20,11,20z"/><g><path fill="#9c34c2" d="M34.868,34.369l-7.35-7.342c-1.098-1.097-0.492-2.938,1.022-3.105l8.252-0.911 c1.186-0.131,2.213,0.894,2.083,2.081l-0.902,8.253C37.807,34.859,35.966,35.466,34.868,34.369z"/><path fill="#9c34c2" d="M32.144,43.534c0.514,0.79-0.33,1.756-1.196,1.384c-2.784-1.197-5.833-3.466-5.833-7.241 c0-6.175,7.498-12.446,8.353-13.14l3.469,4.27l-1.734-2.135l1.738,2.133c-2.627,2.142-6.323,6.121-6.323,9.789 C30.618,40.629,31.341,42.302,32.144,43.534z"/></g></svg>